<?xml version="1.0" encoding="utf-8"?>
<!-- Generator: Adobe Illustrator 16.0.0, SVG Export Plug-In . SVG Version: 6.00 Build 0)  -->
<!DOCTYPE svg PUBLIC "-//W3C//DTD SVG 1.1//EN" "http://www.w3.org/Graphics/SVG/1.1/DTD/svg11.dtd">
<svg version="1.1" id="Layer_1" xmlns="http://www.w3.org/2000/svg" xmlns:xlink="http://www.w3.org/1999/xlink" x="0px" y="0px"
	 width="465.5px" height="394.64px" viewBox="119 90.996 465.5 394.64" enable-background="new 119 90.996 465.5 394.64"
	 xml:space="preserve">
<path fill="#FFFFFF" d="M528.5,211.75H413v-68.254c-0.016-13.918-5.555-27.262-15.395-37.105
	c-9.844-9.84-23.188-15.379-37.105-15.395h-189c-13.918,0.016-27.262,5.555-37.105,15.395c-9.84,9.844-15.379,23.188-15.395,37.105
	v126c0.016,13.918,5.555,27.262,15.395,37.104c9.844,9.84,23.188,15.38,37.105,15.396v21.941c-0.008,4.144,1.219,8.195,3.52,11.641
	c2.305,3.445,5.578,6.125,9.41,7.699c3.848,1.609,8.086,2.035,12.176,1.223s7.844-2.828,10.785-5.785
	c0.375-0.371,0.719-0.77,1.031-1.199l26.133-35.521H287v68.255c0.016,13.918,5.555,27.262,15.395,37.104
	c9.844,9.84,23.188,15.379,37.105,15.396h116.4l36.754,36.745c3.938,3.934,9.277,6.145,14.844,6.141
	c5.566,0,10.902-2.211,14.84-6.148c3.938-3.934,6.152-9.27,6.156-14.836V442.75c13.918-0.016,27.262-5.555,37.102-15.396
	c9.844-9.844,15.379-23.188,15.398-37.104v-126c-0.016-13.918-5.551-27.262-15.396-37.105c-9.839-9.844-23.184-15.379-37.102-15.395
	L528.5,211.75z M229.25,300.996c-3.34,0-6.48,1.59-8.457,4.277l-28.297,38.426v-32.203c0-5.801-4.699-10.5-10.5-10.5h-10.5
	c-8.352-0.008-16.359-3.332-22.266-9.234c-5.902-5.906-9.227-13.914-9.234-22.266v-126c0.008-8.352,3.332-16.359,9.234-22.266
	c5.906-5.902,13.914-9.227,22.266-9.234h189c8.352,0.008,16.359,3.332,22.266,9.234c5.902,5.906,9.227,13.914,9.234,22.266v68.254
	h-52.5c-11.172,0.027-22.039,3.656-30.992,10.344l-32.949-72.441c-1.703-3.75-5.441-6.156-9.559-6.156s-7.855,2.406-9.559,6.156
	l-52.5,115.5c-2.398,5.277-0.063,11.504,5.219,13.902c1.359,0.625,2.839,0.945,4.335,0.941c4.118,0,7.86-2.406,9.563-6.16
	l16.289-35.84h53.324l0.746,1.629c-4.152,7.555-6.359,16.023-6.418,24.641v36.73H229.25z M283.121,216.996h-34.227l17.102-37.633
	L283.121,216.996z M560.001,390.246c-0.012,8.352-3.332,16.354-9.238,22.262s-13.91,9.227-22.262,9.238h-10.5
	c-2.785-0.004-5.457,1.102-7.426,3.074c-1.969,1.969-3.074,4.641-3.074,7.426v32.402l-39.828-39.828
	c-1.965-1.969-4.637-3.078-7.418-3.074h-120.75c-8.352-0.012-16.355-3.332-22.262-9.238s-9.227-13.91-9.238-22.262v-126
	c0.008-8.352,3.332-16.359,9.234-22.266c5.906-5.906,13.914-9.227,22.266-9.234h189c8.352,0.008,16.358,3.328,22.266,9.234
	c5.902,5.906,9.227,13.914,9.234,22.266L560.001,390.246z"/>
<path fill="#FFFFFF" d="M486.5,290.5h-42v-21c0-5.801-4.699-10.5-10.5-10.5s-10.5,4.699-10.5,10.5v21h-42
	c-5.801,0-10.5,4.699-10.5,10.5s4.699,10.5,10.5,10.5h77.914c-2.574,17.84-11.646,34.098-25.477,45.656
	c-8.082-6.758-14.609-15.185-19.142-24.695c-2.484-5.238-8.746-7.469-13.983-4.984c-5.234,2.484-7.469,8.746-4.98,13.984
	c4.879,10.116,11.551,19.272,19.688,27.02c-9.328,3.988-19.371,6.039-29.516,6.023c-2.75,0.016-5.371,1.137-7.277,3.117
	c-1.91,1.977-2.934,4.641-2.848,7.383c0.176,5.871,5,10.531,10.875,10.5c16.684-0.004,33.065-4.461,47.452-12.91
	c14.523,8.414,31.005,12.867,47.789,12.91c2.75-0.012,5.371-1.137,7.277-3.113c1.91-1.977,2.934-4.641,2.848-7.387
	c-0.176-5.867-5-10.527-10.875-10.5c-9.82-0.035-19.534-2.055-28.559-5.941c15.637-15.211,25.512-35.375,27.938-57.059h5.871
	c5.797,0,10.5-4.699,10.5-10.5c0-5.797-4.703-10.5-10.5-10.5L486.5,290.5z"/>
</svg>
