<?xml version="1.0" encoding="utf-8"?>
<!-- Generator: Adobe Illustrator 16.0.0, SVG Export Plug-In . SVG Version: 6.00 Build 0)  -->
<!DOCTYPE svg PUBLIC "-//W3C//DTD SVG 1.1//EN" "http://www.w3.org/Graphics/SVG/1.1/DTD/svg11.dtd">
<svg version="1.1" id="Layer_1" xmlns="http://www.w3.org/2000/svg" xmlns:xlink="http://www.w3.org/1999/xlink" x="0px" y="0px"
	 width="700px" height="526.337px" viewBox="0 0 700 526.337" enable-background="new 0 0 700 526.337" xml:space="preserve">
<path fill="#FFFFFF" d="M581.54,364.42c-1.164-2.848-2.883-5.434-5.063-7.609l-46.668-46.668l0.004,0.004
	c-5.93-5.727-14.435-7.898-22.383-5.723c-7.945,2.18-14.152,8.387-16.332,16.336c-2.18,7.945-0.004,16.453,5.719,22.379l6.836,6.836
	h-21.676c-18.556-0.047-36.341-7.418-49.488-20.512l-49.492-49.465l49.512-49.488h0.004c13.148-13.094,30.935-20.465,49.488-20.512
	h21.676l-6.836,6.836c-4.5,4.348-7.066,10.324-7.121,16.582s2.406,12.277,6.832,16.703c4.426,4.422,10.445,6.887,16.703,6.832
	s12.23-2.621,16.578-7.125l46.668-46.668v0.004c2.18-2.176,3.898-4.762,5.063-7.605c2.359-5.711,2.359-12.121,0-17.828
	c-1.164-2.848-2.883-5.434-5.063-7.605l-46.668-46.668c-5.926-5.723-14.43-7.898-22.379-5.719
	c-7.945,2.176-14.152,8.387-16.332,16.332s-0.004,16.453,5.719,22.379l6.836,6.883h-21.676
	c-30.957-0.074-60.656,12.234-82.484,34.184l-49.512,49.492l-72.848-72.824c-21.828-21.949-51.527-34.258-82.48-34.184h-54.672
	c-8.336,0-16.039,4.449-20.207,11.668s-4.168,16.113,0,23.332s11.871,11.668,20.207,11.668h54.672
	c18.555,0.047,36.34,7.418,49.488,20.508l72.848,72.824l-72.848,72.824c-13.148,13.09-30.934,20.461-49.488,20.508h-54.672
	c-8.336,0-16.039,4.449-20.207,11.669c-4.168,7.219-4.168,16.112,0,23.331c4.168,7.22,11.871,11.669,20.207,11.669h54.672
	c30.953,0.074,60.652-12.234,82.48-34.185l72.848-72.824l49.512,49.488v0.004c21.828,21.949,51.527,34.258,82.484,34.184h21.676
	l-6.836,6.836c-4.5,4.348-7.066,10.32-7.121,16.578c-0.055,6.262,2.406,12.277,6.832,16.703s10.445,6.887,16.703,6.836
	c6.258-0.055,12.229-2.621,16.578-7.125l46.668-46.668c2.18-2.172,3.898-4.758,5.063-7.605
	C583.911,376.517,583.903,370.115,581.54,364.42L581.54,364.42z"/>
</svg>
