<?xml version="1.0" encoding="utf-8"?>
<!-- Generator: Adobe Illustrator 16.0.0, SVG Export Plug-In . SVG Version: 6.00 Build 0)  -->
<!DOCTYPE svg PUBLIC "-//W3C//DTD SVG 1.1//EN" "http://www.w3.org/Graphics/SVG/1.1/DTD/svg11.dtd">
<svg version="1.1" id="Layer_1" xmlns="http://www.w3.org/2000/svg" xmlns:xlink="http://www.w3.org/1999/xlink" x="0px" y="0px"
	 width="309.279px" height="395.98px" viewBox="190.304 81.103 309.279 395.98"
	 enable-background="new 190.304 81.103 309.279 395.98" xml:space="preserve">
<path fill="#FFFFFF" d="M440.29,254.44c-7.48-15.797-25.328-23.156-39.944-16.438c-3.11,1.434-5.77,3.488-8.095,5.887
	c-3.336-6.609-8.934-11.652-15.987-14.172c-7.309-2.613-15.238-2.234-22.345,1.023c-4.457,2.055-8.055,5.156-10.871,8.781
	c-2.18-1.563-4.508-2.941-7.117-3.871c-7.313-2.613-15.242-2.234-22.34,1.023c-3.109,1.43-5.758,3.41-8.086,5.66l-18.742-40.656
	c-6.699-14.52-24.125-20.82-38.848-14.035c-7.094,3.27-12.523,9.07-15.277,16.328c-2.793,7.324-2.531,15.262,0.727,22.316
	l45.91,99.579l-1.301-0.906c-13.82-9.84-33.293-6.66-43.438,7.074c-6.383,8.637-10.707,22.844,4.867,41.495
	c0.598,0.727,61.164,72.816,119.32,90.5c0.965,0.297,1.922,0.43,2.879,0.43c4.211,0,8.113-2.727,9.406-6.977
	c1.578-5.195-1.344-10.702-6.551-12.272c-43.637-13.281-94.145-65.34-109.93-84.285c-8.938-10.707-5.941-14.766-4.156-17.191
	c3.809-5.152,11.078-6.379,16.23-2.711l29.133,20.535l9.852,21.371c1.656,3.605,5.227,5.719,8.941,5.719
	c1.379,0,2.781-0.293,4.117-0.902c4.934-2.273,7.094-8.125,4.816-13.059l-72.211-156.64c-1.023-2.223-1.098-4.727-0.211-7.074
	c0.918-2.406,2.738-4.344,5.125-5.449c4.856-2.234,10.578-0.27,12.723,4.395l30.145,65.387v0.004l0.004,0.004l16.469,35.723
	c2.273,4.934,8.121,7.102,13.059,4.82c4.934-2.273,7.094-8.125,4.816-13.059l-16.477-35.738c-2.141-4.664,0.063-10.27,4.922-12.516
	c2.398-1.109,5.047-1.23,7.477-0.363c2.352,0.84,4.219,2.531,5.246,4.754l16.469,35.727c0,0.004,0.004,0.012,0.004,0.012
	l2.246,4.867c1.656,3.605,5.219,5.719,8.941,5.719c1.379,0,2.781-0.285,4.117-0.895c4.934-2.273,7.09-8.125,4.809-13.059
	l-13.897-30.168c-2.152-4.664,0.055-10.281,4.91-12.527c2.402-1.109,5.051-1.23,7.48-0.363c2.352,0.84,4.219,2.531,5.242,4.754
	l17.625,38.227c2.27,4.938,8.121,7.101,13.059,4.82c4.934-2.273,7.094-8.125,4.816-13.066l-5.449-11.816
	c0-0.004,0-0.012-0.004-0.016c-1.484-3.203-1.785-6.652-0.879-9.703c0.461-1.508,1.641-4.235,4.535-5.57
	c4.781-2.211,11.184,1.07,13.984,7.144c0.113,0.219,0.219,0.438,0.332,0.645c0.402,0.734,40.68,74.34,40.862,139.34
	c0.023,5.426,4.426,9.813,9.844,9.813h0.035c5.438-0.023,9.832-4.43,9.813-9.879c-0.199-68.604-39.805-142.379-43.151-148.5
	L440.29,254.44z"/>
<path fill="#FFFFFF" d="M254.55,156.89c3.191,0,6.324-1.551,8.223-4.418c2.992-4.535,1.742-10.645-2.789-13.641l-5.089-3.367
	c63.668-13.176,132.23-12.566,189.91,2.191c0.816,0.211,1.641,0.309,2.453,0.309c4.387,0,8.391-2.953,9.527-7.398
	c1.344-5.27-1.824-10.629-7.094-11.977c-60.871-15.566-133.21-16.309-200.12-2.27l4.445-6.738c3-4.535,1.754-10.641-2.781-13.637
	c-4.543-3.008-10.641-1.754-13.637,2.781l-17.07,25.832c-1.438,2.18-1.953,4.84-1.434,7.391c0.527,2.566,2.039,4.805,4.219,6.25
	l25.82,17.059c1.672,1.105,3.559,1.633,5.422,1.633L254.55,156.89z"/>
</svg>
