<?xml version="1.0" encoding="utf-8"?>
<!-- Generator: Adobe Illustrator 16.0.0, SVG Export Plug-In . SVG Version: 6.00 Build 0)  -->
<!DOCTYPE svg PUBLIC "-//W3C//DTD SVG 1.1//EN" "http://www.w3.org/Graphics/SVG/1.1/DTD/svg11.dtd">
<svg version="1.1" id="Layer_1" xmlns="http://www.w3.org/2000/svg" xmlns:xlink="http://www.w3.org/1999/xlink" x="0px" y="0px"
	 width="700px" height="526.337px" viewBox="0 0 700 526.337" enable-background="new 0 0 700 526.337" xml:space="preserve">
<path fill="#FFFFFF" d="M118.465,364.419c-2.363,5.696-2.371,12.098-0.023,17.801c1.164,2.848,2.883,5.434,5.063,7.605
	l46.668,46.668c4.349,4.504,10.32,7.07,16.578,7.125c6.258,0.051,12.277-2.41,16.703-6.836s6.887-10.441,6.832-16.703
	c-0.055-6.258-2.621-12.23-7.121-16.578l-6.836-6.836h21.676c30.957,0.074,60.656-12.234,82.484-34.184v-0.004L350,312.989
	l72.848,72.824c21.828,21.95,51.527,34.259,82.48,34.185H560c8.336,0,16.039-4.449,20.207-11.669c4.168-7.219,4.168-16.112,0-23.331
	c-4.168-7.22-11.871-11.669-20.207-11.669h-54.672c-18.555-0.047-36.34-7.418-49.488-20.508l-72.848-72.824l72.848-72.824
	c13.148-13.09,30.934-20.461,49.488-20.508H560c8.336,0,16.039-4.449,20.207-11.668s4.168-16.113,0-23.332
	S568.336,139.998,560,139.998h-54.672c-30.953-0.074-60.652,12.235-82.48,34.184L350,247.005l-49.512-49.492
	c-21.828-21.95-51.527-34.258-82.484-34.184h-21.676l6.836-6.883c5.723-5.926,7.898-14.434,5.719-22.379
	s-8.387-14.156-16.332-16.332c-7.949-2.18-16.453-0.004-22.379,5.719l-46.668,46.668c-2.18,2.172-3.898,4.758-5.063,7.605
	c-2.359,5.707-2.359,12.117,0,17.828c1.164,2.844,2.883,5.43,5.063,7.605v-0.004l46.668,46.668c4.348,4.504,10.32,7.07,16.578,7.125
	s12.277-2.41,16.703-6.832c4.426-4.426,6.887-10.445,6.832-16.703s-2.621-12.234-7.121-16.582l-6.836-6.836h21.676
	c18.554,0.047,36.34,7.418,49.488,20.512h0.004l49.512,49.488l-49.492,49.465c-13.147,13.094-30.933,20.465-49.488,20.512h-21.676
	l6.836-6.836c5.723-5.926,7.898-14.434,5.719-22.379c-2.18-7.949-8.387-14.156-16.332-16.336
	c-7.948-2.176-16.453-0.004-22.383,5.723l0.004-0.004l-46.668,46.668C121.348,358.986,119.629,361.572,118.465,364.419
	L118.465,364.419z"/>
</svg>
