<?xml version="1.0" encoding="utf-8"?>
<!-- Generator: Adobe Illustrator 16.0.0, SVG Export Plug-In . SVG Version: 6.00 Build 0)  -->
<!DOCTYPE svg PUBLIC "-//W3C//DTD SVG 1.1//EN" "http://www.w3.org/Graphics/SVG/1.1/DTD/svg11.dtd">
<svg version="1.1" id="Layer_1" xmlns="http://www.w3.org/2000/svg" xmlns:xlink="http://www.w3.org/1999/xlink" x="0px" y="0px"
	 width="360px" height="324px" viewBox="172.5 116.5 360 324" enable-background="new 172.5 116.5 360 324" xml:space="preserve">
<path fill="#FFFFFF" d="M229.04,289.32l-6.273,3.5l13.836-48.664c1.488-5.231-1.547-10.668-6.77-12.152
	c-5.227-1.496-10.668,1.535-12.152,6.77l-13.844,48.664l-3.504-6.293c-2.656-4.75-8.641-6.469-13.395-3.809
	c-4.75,2.648-6.453,8.641-3.809,13.391l15.07,27.046c0.004,0.016,0.023,0.023,0.027,0.035c0.617,1.098,1.445,2.078,2.445,2.879
	c0.023,0.016,0.051,0.027,0.074,0.043c0.973,0.766,2.102,1.359,3.359,1.72c0.887,0.262,1.785,0.379,2.688,0.379
	c0.004,0,0.016-0.004,0.023-0.004c0.953-0.004,1.895-0.18,2.805-0.461c0.293-0.09,0.555-0.211,0.828-0.336
	c0.375-0.145,0.773-0.254,1.133-0.449l27.027-15.06c4.75-2.648,6.453-8.645,3.809-13.402
	C239.785,288.379,233.785,286.668,229.04,289.32L229.04,289.32z"/>
<path fill="#FFFFFF" d="M263.55,168.01c1.797,3.23,5.152,5.051,8.605,5.051c1.625,0,3.266-0.398,4.781-1.242
	c4.75-2.648,6.453-8.641,3.809-13.391l-15.07-27.047c-0.004-0.012-0.023-0.023-0.027-0.035c-0.617-1.098-1.445-2.078-2.445-2.871
	c-0.023-0.016-0.043-0.027-0.066-0.043c-0.973-0.762-2.102-1.359-3.367-1.719c-0.637-0.184-1.289-0.297-1.941-0.348
	c-0.219-0.016-0.438,0.016-0.656,0.012c-0.422,0-0.84-0.023-1.262,0.027c-0.309,0.035-0.598,0.129-0.902,0.195
	c-0.324,0.066-0.656,0.113-0.973,0.219c-0.133,0.043-0.258,0.117-0.391,0.168c-0.461,0.172-0.926,0.348-1.355,0.59l-27.035,15.07
	c-4.75,2.648-6.453,8.641-3.809,13.391c2.637,4.742,8.637,6.453,13.395,3.809l6.273-3.5l-13.844,48.664
	c-1.488,5.23,1.547,10.668,6.77,12.156c0.895,0.258,1.809,0.375,2.699,0.375c4.285,0,8.227-2.816,9.457-7.152l13.844-48.676
	L263.55,168.01z"/>
<path fill="#FFFFFF" d="M509.57,238.17l-2.156-8.938c-4.289-17.801-20.613-29.164-36.359-25.375
	c-3.664,0.887-7.039,2.613-10.02,4.93c-2.438-4.453-5.836-8.301-10.199-11.059c-6.754-4.277-14.711-5.617-22.41-3.746
	c-4.336,1.047-8.227,3.125-11.57,5.898c-2.066-2.598-4.492-4.93-7.359-6.742c-6.758-4.285-14.711-5.605-22.397-3.754
	c-3.281,0.789-6.273,2.219-9.016,4.02l-10.289-42.621c-1.859-7.734-6.551-14.32-13.216-18.535c-6.753-4.266-14.71-5.582-22.39-3.742
	c-7.688,1.855-14.164,6.664-18.223,13.547c-4.004,6.777-5.188,14.777-3.309,22.52l37.52,155.55
	c-10.953,1.141-28.676,2.004-43.34-1.992c-9.313-3.91-26.023-10.478-40.422,5.93c-5.672,6.461-8.391,16.121-7.273,25.854
	c1.125,9.789,5.926,18.379,13.16,23.57c13.574,9.742,67.043,33.168,119.189,52.215c1.113,0.402,2.25,0.598,3.375,0.598
	c4.02,0,7.785-2.477,9.246-6.469c1.859-5.102-0.766-10.758-5.875-12.621c-54.229-19.812-103.85-42.104-114.469-49.719
	c-2.688-1.934-4.582-5.602-5.066-9.828c-0.477-4.172,0.504-8.34,2.504-10.625c4.156-4.703,7.09-5.355,18.574-0.527
	c0.371,0.152,0.758,0.293,1.141,0.398c27.469,7.766,61.758,1.43,63.203,1.152c0.09-0.016,0.168-0.055,0.258-0.078
	c0.078-0.016,0.145-0.012,0.223-0.027c0.254-0.063,0.469-0.168,0.707-0.246c0.324-0.105,0.645-0.195,0.945-0.336
	c0.297-0.125,0.57-0.293,0.844-0.441c0.281-0.164,0.57-0.32,0.836-0.504c0.262-0.184,0.492-0.391,0.738-0.598
	c0.234-0.207,0.477-0.402,0.695-0.629c0.223-0.234,0.414-0.488,0.609-0.738c0.195-0.242,0.387-0.477,0.559-0.734
	c0.172-0.273,0.32-0.559,0.461-0.84c0.141-0.273,0.297-0.547,0.402-0.828c0.117-0.309,0.207-0.609,0.301-0.93
	c0.086-0.297,0.18-0.582,0.234-0.887c0.066-0.332,0.09-0.672,0.117-1.02c0.023-0.297,0.055-0.59,0.055-0.895
	c0-0.352-0.051-0.707-0.094-1.059c-0.027-0.23-0.016-0.461-0.063-0.695c-0.012-0.078-0.051-0.145-0.066-0.223
	c-0.023-0.09-0.012-0.172-0.035-0.262l-40.078-166.13c-0.66-2.742-0.254-5.543,1.133-7.902c1.332-2.246,3.422-3.82,5.887-4.418
	c2.492-0.598,5.047-0.145,7.258,1.25c2.309,1.461,3.941,3.77,4.602,6.508l23.336,96.73c1.277,5.285,6.574,8.527,11.871,7.258
	c5.285-1.277,8.535-6.598,7.262-11.879l-6.43-26.641v-0.039c-0.668-2.727-0.262-5.54,1.125-7.891
	c1.332-2.258,3.422-3.824,5.887-4.426c2.441-0.594,5.039-0.152,7.258,1.25c2.313,1.469,3.941,3.773,4.602,6.512l6.434,26.672
	c0,0.004,0.004,0.016,0.012,0.023l1.32,5.48c1.082,4.512,5.117,7.539,9.559,7.539c0.762,0,1.535-0.09,2.309-0.273
	c5.285-1.277,8.539-6.598,7.262-11.879l-4.441-18.406c-0.656-2.734-0.254-5.539,1.137-7.895c1.328-2.258,3.41-3.82,5.879-4.418
	c2.445-0.594,5.047-0.145,7.262,1.25c2.313,1.461,3.941,3.773,4.602,6.52l5.344,22.113v0.027c0,0.004,0.012,0.012,0.012,0.016
	l1.281,5.332c1.277,5.269,6.547,8.519,11.883,7.254c5.273-1.277,8.523-6.59,7.254-11.879l-1.301-5.398
	c-0.895-3.746-0.547-7.633,0.953-10.656c0.723-1.449,2.367-3.977,5.324-4.699c5.141-1.266,10.902,3.746,12.621,10.852l2.152,8.938
	c20.703,85.809,17.672,121.23,12.719,142.52c-1.23,5.293,2.055,10.59,7.352,11.809c0.758,0.172,1.5,0.262,2.234,0.262
	c4.473,0,8.523-3.074,9.582-7.609c8.227-35.215,4.406-80.555-12.733-151.6L509.57,238.17z"/>
</svg>
